# Blender v2.79 (sub 0) OBJ File: ''
# www.blender.org
mtllib untitled.mtl
o Cube
v 0.896686 -1.038172 -0.719041
v 0.896686 -1.038172 1.280959
v -1.103314 -1.038172 1.280959
v -1.103314 -1.038172 -0.719041
v -0.095151 0.395038 0.272796
v -0.095151 0.395038 0.289122
v -0.111477 0.395038 0.289122
v -0.111477 0.395038 0.272796
vt 0.000204 0.464791
vt 0.464791 0.464791
vt 0.464791 0.000204
vt 0.000204 0.000204
vt 0.802325 0.003997
vt 0.798532 0.003997
vt 0.798532 0.000204
vt 0.802325 0.000204
vt 0.333129 0.929786
vt 0.000204 0.699389
vt 0.000204 0.695596
vt 0.333129 0.465199
vt 0.666462 0.929786
vt 0.333537 0.699389
vt 0.333537 0.695596
vt 0.666462 0.465199
vt 0.798124 0.000204
vt 0.465199 0.230601
vt 0.465199 0.234394
vt 0.798124 0.464791
vt 0.666871 0.699388
vt 0.999796 0.929786
vt 0.999796 0.465199
vt 0.666871 0.695596
vn 0.0000 -1.0000 0.0000
vn 0.0000 1.0000 0.0000
vn 0.8223 0.5691 0.0000
vn -0.0000 0.5691 0.8223
vn -0.8223 0.5691 -0.0000
vn 0.0000 0.5691 -0.8223
usemtl Material
s off
f 1/1/1 2/2/1 3/3/1 4/4/1
f 5/5/2 8/6/2 7/7/2 6/8/2
f 1/9/3 5/10/3 6/11/3 2/12/3
f 2/13/4 6/14/4 7/15/4 3/16/4
f 3/17/5 7/18/5 8/19/5 4/20/5
f 5/21/6 1/22/6 4/23/6 8/24/6
