# Blender v2.79 (sub 0) OBJ File: ''
# www.blender.org
mtllib untitled.mtl
o Cube.004
v -0.930292 -0.619096 -0.478333
v -0.930292 -0.408959 -0.478333
v -0.930292 -0.619096 -2.314416
v -0.930292 -0.408959 -2.314416
v 1.866770 -0.619096 -0.478333
v 1.866770 -0.408959 -0.478333
v 1.866770 -0.619096 -2.314416
v 1.866770 -0.408959 -2.314416
vn -1.0000 0.0000 0.0000
vn 0.0000 0.0000 -1.0000
vn 1.0000 0.0000 0.0000
vn 0.0000 0.0000 1.0000
vn 0.0000 -1.0000 0.0000
vn 0.0000 1.0000 0.0000
usemtl None
s off
f 1//1 2//1 4//1 3//1
f 3//2 4//2 8//2 7//2
f 7//3 8//3 6//3 5//3
f 5//4 6//4 2//4 1//4
f 3//5 7//5 5//5 1//5
f 8//6 4//6 2//6 6//6
o Cube.001
v -0.391223 -1.003741 -2.325531
v -0.391223 -1.003741 -1.794698
v -0.927685 -1.003741 -1.794699
v -0.927684 -1.003741 -2.325531
v -0.391222 -0.615963 -2.325531
v -0.391223 -0.615963 -1.794698
v -0.927685 -0.615963 -1.794699
v -0.927685 -0.615963 -2.325531
vn 0.0000 -1.0000 -0.0000
vn 0.0000 1.0000 -0.0000
vn 1.0000 0.0000 0.0000
vn -0.0000 -0.0000 1.0000
vn -1.0000 -0.0000 -0.0000
vn 0.0000 0.0000 -1.0000
usemtl Material
s off
f 9//7 10//7 11//7 12//7
f 13//8 16//8 15//8 14//8
f 9//9 13//9 14//9 10//9
f 10//10 14//10 15//10 11//10
f 11//11 15//11 16//11 12//11
f 13//12 9//12 12//12 16//12
o Cube
v -0.390905 -1.000000 -1.000000
v -0.390905 -1.000000 -0.469167
v -0.927368 -1.000000 -0.469167
v -0.927367 -1.000000 -1.000000
v -0.390905 -0.612222 -0.999999
v -0.390906 -0.612222 -0.469167
v -0.927368 -0.612222 -0.469168
v -0.927368 -0.612222 -1.000000
vn 0.0000 -1.0000 0.0000
vn 0.0000 1.0000 -0.0000
vn 1.0000 0.0000 0.0000
vn -0.0000 -0.0000 1.0000
vn -1.0000 -0.0000 -0.0000
vn 0.0000 0.0000 -1.0000
usemtl Material
s off
f 17//13 18//13 19//13 20//13
f 21//14 24//14 23//14 22//14
f 17//15 21//15 22//15 18//15
f 18//16 22//16 23//16 19//16
f 19//17 23//17 24//17 20//17
f 21//18 17//18 20//18 24//18
o Cube.003
v 1.869725 -1.000000 -1.000000
v 1.869725 -1.000000 -0.469167
v 1.333263 -1.000000 -0.469167
v 1.333264 -1.000000 -1.000000
v 1.869726 -0.612222 -0.999999
v 1.869725 -0.612222 -0.469167
v 1.333263 -0.612222 -0.469168
v 1.333263 -0.612222 -1.000000
vn 0.0000 -1.0000 0.0000
vn 0.0000 1.0000 0.0000
vn 1.0000 0.0000 0.0000
vn -0.0000 -0.0000 1.0000
vn -1.0000 -0.0000 -0.0000
vn 0.0000 0.0000 -1.0000
usemtl Material.001
s off
f 25//19 26//19 27//19 28//19
f 29//20 32//20 31//20 30//20
f 25//21 29//21 30//21 26//21
f 26//22 30//22 31//22 27//22
f 27//23 31//23 32//23 28//23
f 29//24 25//24 28//24 32//24
o Cube.002
v 1.869408 -1.003741 -2.325531
v 1.869408 -1.003741 -1.794698
v 1.332946 -1.003741 -1.794699
v 1.332947 -1.003741 -2.325531
v 1.869409 -0.615963 -2.325531
v 1.869408 -0.615963 -1.794698
v 1.332946 -0.615963 -1.794699
v 1.332946 -0.615963 -2.325531
vn 0.0000 -1.0000 -0.0000
vn 0.0000 1.0000 0.0000
vn 1.0000 0.0000 0.0000
vn -0.0000 -0.0000 1.0000
vn -1.0000 -0.0000 -0.0000
vn 0.0000 0.0000 -1.0000
usemtl Material.001
s off
f 33//25 34//25 35//25 36//25
f 37//26 40//26 39//26 38//26
f 33//27 37//27 38//27 34//27
f 34//28 38//28 39//28 35//28
f 35//29 39//29 40//29 36//29
f 37//30 33//30 36//30 40//30
