# Blender v2.79 (sub 0) OBJ File: ''
# www.blender.org
mtllib untitled.mtl
o Cube
v 1.000000 0.010234 -1.000000
v 1.000000 0.010234 1.000000
v -1.000000 0.010234 1.000000
v -1.000000 0.010234 -1.000000
v 0.659313 1.783472 -0.659312
v 0.659312 1.783472 0.659313
v -0.659313 1.783472 0.659313
v -0.659313 1.783472 -0.659313
v 1.000000 0.010234 -0.413764
v 1.000000 0.010234 0.397103
v 0.831770 0.885849 0.299585
v 0.831770 0.885849 -0.332568
v 0.313852 0.007918 -0.440269
v 0.313852 0.007918 0.424146
v 0.330339 0.851589 0.320189
v 0.330339 0.851589 -0.353710
v 1.000000 0.010234 0.498714
v 1.000000 0.010234 -0.519331
v 0.818601 0.954396 -0.418816
v 0.818110 0.956947 0.382734
v 1.000000 0.010234 -0.413764
v 1.000000 0.010234 0.397103
v 1.000000 0.010234 0.498714
v 1.000000 0.010234 -0.519331
v 0.818601 0.954396 -0.418816
v 0.818110 0.956947 0.382734
v 1.407436 0.004377 -0.611071
v 1.407436 0.004377 -0.486366
v 1.407436 -0.000772 0.471505
v 1.208708 0.863415 0.356309
v 1.208708 0.863415 -0.390449
v 1.407436 -0.000772 0.591537
v 1.193151 0.944389 -0.492333
v 1.192572 0.947402 0.454531
v 1.000000 0.010234 0.498714
v 1.000000 0.010234 1.000000
v 1.000000 0.010234 -1.000000
v -1.000000 0.010234 -1.000000
v -1.000000 0.010234 1.000000
v 1.000000 0.010234 -0.519331
v 1.000000 0.010234 -0.413764
v 1.000000 0.010234 0.397103
vn 0.0000 0.0000 1.0000
vn 0.0000 1.0000 0.0000
vn 0.9820 0.1887 0.0000
vn -0.0000 0.1887 0.9820
vn -0.9820 0.1887 -0.0000
vn 0.0000 0.1887 -0.9820
vn 0.9998 -0.0195 0.0000
vn 0.0682 -0.9977 -0.0000
vn -0.0034 1.0000 0.0000
vn -0.0368 -0.1003 0.9943
vn -0.0361 -0.1195 -0.9922
vn -0.0144 -0.9999 0.0000
vn 0.9770 0.2134 -0.0000
vn 0.0261 0.9997 -0.0032
vn -0.0594 -0.9982 -0.0000
vn -0.2030 0.0877 0.9752
vn -0.2049 0.0706 -0.9762
vn 0.1614 -0.0664 0.9847
vn -0.0270 -0.9996 0.0000
vn 0.1607 -0.0863 -0.9832
vn 0.0000 -1.0000 -0.0000
usemtl Material
s off
f 18//1 9//1 41//1 40//1
f 5//2 8//2 7//2 6//2
f 1//3 5//3 6//3 2//3 17//3 20//3 19//3 18//3
f 2//4 6//4 7//4 3//4
f 3//5 7//5 8//5 4//5
f 5//6 1//6 4//6 8//6
f 13//7 16//7 15//7 14//7
f 12//8 11//8 15//8 16//8
f 10//9 9//9 13//9 14//9
f 9//10 12//10 16//10 13//10
f 11//11 10//11 14//11 15//11
f 20//1 19//1 25//1 26//1
f 9//12 18//12 27//12 28//12
f 9//1 10//1 22//1 21//1
f 17//1 20//1 26//1 23//1
f 19//1 18//1 24//1 25//1
f 27//13 33//13 34//13 32//13 29//13 30//13 31//13 28//13
f 19//14 20//14 34//14 33//14
f 11//15 12//15 31//15 30//15
f 20//16 17//16 32//16 34//16
f 18//17 19//17 33//17 27//17
f 12//18 9//18 28//18 31//18
f 17//19 10//19 29//19 32//19
f 10//20 11//20 30//20 29//20
f 37//21 40//21 41//21 42//21 35//21 36//21 39//21 38//21
f 4//1 1//1 37//1 38//1
f 1//1 18//1 40//1 37//1
f 9//1 10//1 42//1 41//1
f 17//1 2//1 36//1 35//1
f 3//1 4//1 38//1 39//1
f 10//1 17//1 35//1 42//1
f 2//1 3//1 39//1 36//1
