# Blender v2.79 (sub 0) OBJ File: ''
# www.blender.org
mtllib untitled.mtl
o Cylinder_Cylinder.001
v -1.135420 5.522810 -1.568200
v -0.913200 12.703139 -0.608743
v -0.998460 5.522810 -1.554711
v -0.859990 12.703139 -0.603503
v -0.866763 5.522810 -1.514761
v -0.808825 12.703139 -0.587982
v -0.745391 5.522810 -1.449886
v -0.761671 12.703139 -0.562778
v -0.639008 5.522810 -1.362580
v -0.720340 12.703139 -0.528858
v -0.551701 5.522810 -1.256196
v -0.686421 12.703139 -0.487527
v -0.486826 5.522810 -1.134824
v -0.661216 12.703139 -0.440373
v -0.446876 5.522810 -1.003127
v -0.645696 12.703139 -0.389208
v -0.433387 5.522810 -0.866167
v -0.640455 12.703139 -0.335998
v -0.446876 5.522810 -0.729208
v -0.645696 12.703139 -0.282788
v -0.486826 5.522810 -0.597511
v -0.661216 12.703139 -0.231623
v -0.551701 5.522810 -0.476139
v -0.686421 12.703139 -0.184468
v -0.639008 5.522810 -0.369755
v -0.720340 12.703139 -0.143137
v -0.745391 5.522810 -0.282448
v -0.761671 12.703139 -0.109218
v -0.866763 5.522810 -0.217574
v -0.808825 12.703139 -0.084013
v -0.998460 5.522810 -0.177624
v -0.859991 12.703139 -0.068493
v -1.135420 5.522810 -0.164135
v -0.913201 12.703139 -0.063252
v -1.272380 5.522810 -0.177624
v -0.966411 12.703139 -0.068493
v -1.404076 5.522810 -0.217574
v -1.017576 12.703139 -0.084014
v -1.525449 5.522810 -0.282449
v -1.064730 12.703139 -0.109218
v -1.631832 5.522810 -0.369756
v -1.106061 12.703139 -0.143137
v -1.719139 5.522810 -0.476139
v -1.139980 12.703139 -0.184469
v -1.784014 5.522810 -0.597512
v -1.165185 12.703139 -0.231623
v -1.823963 5.522810 -0.729208
v -1.180706 12.703139 -0.282788
v -1.837453 5.522810 -0.866168
v -1.185946 12.703139 -0.335998
v -1.823963 5.522810 -1.003128
v -1.180706 12.703139 -0.389208
v -1.784013 5.522810 -1.134825
v -1.165185 12.703139 -0.440373
v -1.719138 5.522810 -1.256197
v -1.139980 12.703139 -0.487527
v -1.631831 5.522810 -1.362580
v -1.106061 12.703139 -0.528858
v -1.525447 5.522810 -1.449887
v -1.064730 12.703139 -0.562778
v -1.404075 5.522810 -1.514762
v -1.017576 12.703139 -0.587982
v -1.272378 5.522810 -1.554711
v -0.966410 12.703139 -0.603503
vn 0.0972 0.1289 -0.9869
vn 0.2882 0.1203 -0.9500
vn 0.4686 0.1094 -0.8766
vn 0.6314 0.0965 -0.7694
vn 0.7704 0.0821 -0.6323
vn 0.8799 0.0669 -0.4703
vn 0.9557 0.0512 -0.2899
vn 0.9945 0.0359 -0.0980
vn 0.9950 0.0215 0.0980
vn 0.9569 0.0084 0.2903
vn 0.8819 -0.0026 0.4714
vn 0.7730 -0.0113 0.6344
vn 0.6343 -0.0172 0.7729
vn 0.4713 -0.0202 0.8817
vn 0.2902 -0.0201 0.9567
vn 0.0980 -0.0170 0.9950
vn -0.0980 -0.0109 0.9951
vn -0.2903 -0.0022 0.9569
vn -0.4714 0.0090 0.8819
vn -0.6342 0.0221 0.7728
vn -0.7725 0.0366 0.6340
vn -0.8807 0.0519 0.4708
vn -0.9548 0.0675 0.2896
vn -0.9918 0.0828 0.0977
vn -0.9905 0.0971 -0.0976
vn -0.9511 0.1099 -0.2885
vn -0.8755 0.1207 -0.4680
vn -0.7665 0.1292 -0.6291
vn -0.6286 0.1350 -0.7659
vn -0.4669 0.1379 -0.8735
vn 0.0000 1.0000 -0.0000
vn -0.2875 0.1378 -0.9478
vn -0.0971 0.1348 -0.9861
vn 0.0000 -1.0000 -0.0000
usemtl None
s off
f 1//1 2//1 4//1 3//1
f 3//2 4//2 6//2 5//2
f 5//3 6//3 8//3 7//3
f 7//4 8//4 10//4 9//4
f 9//5 10//5 12//5 11//5
f 11//6 12//6 14//6 13//6
f 13//7 14//7 16//7 15//7
f 15//8 16//8 18//8 17//8
f 17//9 18//9 20//9 19//9
f 19//10 20//10 22//10 21//10
f 21//11 22//11 24//11 23//11
f 23//12 24//12 26//12 25//12
f 25//13 26//13 28//13 27//13
f 27//14 28//14 30//14 29//14
f 29//15 30//15 32//15 31//15
f 31//16 32//16 34//16 33//16
f 33//17 34//17 36//17 35//17
f 35//18 36//18 38//18 37//18
f 37//19 38//19 40//19 39//19
f 39//20 40//20 42//20 41//20
f 41//21 42//21 44//21 43//21
f 43//22 44//22 46//22 45//22
f 45//23 46//23 48//23 47//23
f 47//24 48//24 50//24 49//24
f 49//25 50//25 52//25 51//25
f 51//26 52//26 54//26 53//26
f 53//27 54//27 56//27 55//27
f 55//28 56//28 58//28 57//28
f 57//29 58//29 60//29 59//29
f 59//30 60//30 62//30 61//30
f 4//31 2//31 64//31 62//31 60//31 58//31 56//31 54//31 52//31 50//31 48//31 46//31 44//31 42//31 40//31 38//31 36//31 34//31 32//31 30//31 28//31 26//31 24//31 22//31 20//31 18//31 16//31 14//31 12//31 10//31 8//31 6//31
f 61//32 62//32 64//32 63//32
f 63//33 64//33 2//33 1//33
f 1//34 3//34 5//34 7//34 9//34 11//34 13//34 15//34 17//34 19//34 21//34 23//34 25//34 27//34 29//34 31//34 33//34 35//34 37//34 39//34 41//34 43//34 45//34 47//34 49//34 51//34 53//34 55//34 57//34 59//34 61//34 63//34
